<svg xmlns="http://www.w3.org/2000/svg" xmlns:xlink="http://www.w3.org/1999/xlink" width="50.841" height="42.002" viewBox="0 0 50.841 42.002">
  <defs>
    <filter id="Path_1036" x="0" y="20.21" width="45.789" height="21.792" filterUnits="userSpaceOnUse">
      <feOffset dy="3" input="SourceAlpha"/>
      <feGaussianBlur stdDeviation="3" result="blur"/>
      <feFlood flood-opacity="0.502"/>
      <feComposite operator="in" in2="blur"/>
      <feComposite in="SourceGraphic"/>
    </filter>
    <filter id="Path_1037" x="0" y="0" width="45.789" height="21.792" filterUnits="userSpaceOnUse">
      <feOffset dy="3" input="SourceAlpha"/>
      <feGaussianBlur stdDeviation="3" result="blur-2"/>
      <feFlood flood-opacity="0.502"/>
      <feComposite operator="in" in2="blur-2"/>
      <feComposite in="SourceGraphic"/>
    </filter>
    <filter id="Path_1038" x="0" y="10.105" width="50.841" height="21.903" filterUnits="userSpaceOnUse">
      <feOffset dy="3" input="SourceAlpha"/>
      <feGaussianBlur stdDeviation="3" result="blur-3"/>
      <feFlood flood-opacity="0.502"/>
      <feComposite operator="in" in2="blur-3"/>
      <feComposite in="SourceGraphic"/>
    </filter>
  </defs>
  <g id="Burger_menu" data-name="Burger menu" transform="translate(-332 -63)">
    <g transform="matrix(1, 0, 0, 1, 332, 63)" filter="url(#Path_1036)">
      <path id="Path_1036-2" data-name="Path 1036" d="M1.895,0H27.789l-3.5,3.792-22.393,0A1.895,1.895,0,0,1,1.895,0Z" transform="translate(9 26.21)" fill="#fff"/>
    </g>
    <g transform="matrix(1, 0, 0, 1, 332, 63)" filter="url(#Path_1037)">
      <path id="Path_1037-2" data-name="Path 1037" d="M1.895,3.792H27.789L24.288,0,1.895,0a1.895,1.895,0,0,0,0,3.789Z" transform="translate(9 6)" fill="#fff"/>
    </g>
    <g transform="matrix(1, 0, 0, 1, 332, 63)" filter="url(#Path_1038)">
      <path id="Path_1038-2" data-name="Path 1038" d="M1.895,0,30.747.113l2.095,1.818L30.747,3.9,1.895,3.789A1.895,1.895,0,0,1,1.895,0Z" transform="translate(9 16.11)" fill="#fff"/>
    </g>
  </g>
</svg>
